<!DOCTYPE svg PUBLIC "-//W3C//DTD SVG 20010904//EN" "http://www.w3.org/TR/2001/REC-SVG-20010904/DTD/svg10.dtd">
<svg version="1.0" xmlns="http://www.w3.org/2000/svg" width="336px" height="93px" viewBox="0 0 3360 930" preserveAspectRatio="xMidYMid meet">
<g id="layer1" fill="#3c3d3c" stroke="none">
 <path d="M183 913 l-33 -17 0 -258 0 -258 -75 0 -75 0 0 -151 c0 -86 5 -168 12 -190 l11 -39 501 0 501 0 63 51 c41 33 64 46 67 37 2 -7 8 -29 13 -48 l8 -35 447 -3 447 -2 0 280 0 280 90 0 90 0 0 -229 c0 -140 5 -249 12 -280 l11 -51 304 0 303 0 0 150 0 150 240 0 240 0 0 315 0 315 -1572 -1 c-1428 0 -1576 -2 -1605 -16z m1137 -26 c0 -2 -20 -23 -45 -47 l-45 -44 0 47 0 47 45 0 c25 0 45 -1 45 -3z m-890 -337 l0 -330 70 0 70 0 0 -85 0 -85 -239 0 -240 0 -3 85 -3 85 78 0 78 0 -3 330 -3 330 98 0 97 0 0 -330z m140 80 l0 -250 -40 0 -40 0 0 250 0 250 40 0 40 0 0 -250z m290 50 c0 -110 2 -200 5 -200 2 0 22 19 44 43 l40 42 1 158 0 157 100 0 100 0 0 -168 0 -168 -60 -59 c-33 -33 -60 -62 -60 -65 0 -3 27 -3 60 -2 l60 4 -1 -124 0 -123 -78 -62 -78 -63 -167 0 -166 0 0 415 0 415 100 0 100 0 0 -200z m875 -215 l0 -415 -102 0 -103 0 0 285 0 285 -45 0 -45 0 0 -285 0 -285 -100 0 -100 0 0 333 0 333 73 72 c40 39 78 72 85 72 6 0 12 5 12 10 0 6 61 10 163 10 l162 0 0 -415z m523 288 l-5 -128 -117 -3 -116 -3 0 -284 0 -285 -100 0 -100 0 0 415 0 415 221 0 221 0 -4 -127z m132 34 l0 -93 -35 -34 -35 -34 0 111 c0 61 -3 118 -6 127 -5 13 2 16 35 16 l41 0 0 -93z m280 -111 l0 -204 80 -78 80 -77 0 -134 0 -133 -105 0 -105 0 0 175 0 175 -45 0 -45 0 0 -175 0 -175 -95 0 -95 0 0 258 0 258 65 64 65 64 0 93 0 93 100 0 100 0 0 -204z m120 -18 l0 -222 -30 29 -30 29 0 193 0 193 30 0 30 0 0 -222z m350 -48 l0 -270 -65 0 -65 0 0 200 0 200 -25 0 -25 0 0 -200 0 -200 -42 0 c-32 0 -49 6 -70 27 l-28 27 0 225 c0 195 2 227 17 243 14 16 33 18 160 18 l143 0 0 -270z m190 0 l0 -270 -70 0 -70 0 0 270 0 270 70 0 70 0 0 -270z"/>
 <path d="M860 285 l0 -65 45 0 45 0 0 65 0 65 -45 0 -45 0 0 -65z"/>
 </g>
<g id="layer2" fill="#66cc99" stroke="none">
 <path d="M2837 862 c-15 -16 -17 -48 -17 -243 l0 -225 28 -27 c21 -21 38 -27 70 -27 l42 0 0 200 0 200 25 0 25 0 0 -200 0 -200 65 0 65 0 0 270 0 270 -143 0 c-127 0 -146 -2 -160 -18z"/>
 <path d="M3190 610 l0 -270 70 0 70 0 0 270 0 270 -70 0 -70 0 0 -270z"/>
 </g>

</svg>